<?xml version="1.0" encoding="UTF-8"?>
<svg id="_图层_1" xmlns="http://www.w3.org/2000/svg" version="1.1" viewBox="0 0 800 600">
  <!-- Generator: Adobe Illustrator 29.0.0, SVG Export Plug-In . SVG Version: 2.1.0 Build 186)  -->
  <defs>
    <style>
      .st0 {
        fill: #fff;
      }

      .st1 {
        stroke: #000;
        stroke-miterlimit: 10;
      }

      .st2 {
        fill: #f29600;
      }
    </style>
  </defs>
  <rect class="st1" width="800" height="600"/>
  <path class="st0" d="M180.4,300.5c-1.1-2.5-2.5-4.4-4.1-5.8-1.6-1.4-3.9-2.8-6.9-4.3l6.6-6.6c1.5-1.2,2.6-4,3.4-8.3.4-2.5.4-5.9,0-10s-1-7.5-1.7-10-2-5.1-3.8-7.5-4-4-6.6-4.6c-2.6-.6-5.6-.9-9-.9h-78.2v97.5h75.2c5.8,0,9.7-.2,11.7-.6s4.5-1.6,7.3-3.4c2.8-1.9,4.7-4,5.6-6.4.9-2.4,1.6-5.3,1.9-8.6.4-4.4.5-8.3.4-11.6-.1-3.3-.8-6.2-1.9-8.7h0ZM102.8,263.4h44.2c2.8,0,4.7,1.1,5.9,3.3,1.2,2.2,1.8,4.2,1.9,5.9.1,1.8-.6,3.7-2,5.7-1.5,2-3.4,3.1-5.8,3.1h-44.2v-18h0ZM155.9,316.3c-1.4,1.5-3.6,2.3-6.5,2.3h-46.7v-19h46.7c3.2,0,5.4,1.2,6.6,3.5s1.8,4.4,1.9,6.3c0,3.2-.6,5.5-2,7h0Z"/>
  <path class="st0" d="M264.5,279c-.7-1.5-1.8-3-3.1-4.3-1.3-1.3-3-2.5-5.1-3.3-2.1-.9-4.5-1.6-7.1-2.2s-5.4-.9-8.3-.9h-26.6c-2.2,0-4.5.2-7.1.7-2.6.5-5,1.1-7.1,1.9-2.2.8-3.9,1.8-5.3,3.1-1.4,1.2-2.5,2.6-3.5,4.2-.9,1.5-1.7,3.6-2.2,6.1-.6,2.5-.8,5.2-.8,8v20.5c0,3.2.3,6.3.9,9.2.6,2.9,1.4,5.3,2.3,7.1s2,3.5,3.2,4.8c1.2,1.3,2.9,2.4,5,3.3,2.1.8,4.4,1.5,6.9,2,2.5.5,4.9.8,7.4.8h27c2.7,0,5.5-.3,8.3-.8s5.3-1.2,7.3-2,3.7-1.9,5.1-3.4c1.4-1.5,2.5-3.4,3.3-5.9.8-2.4,1.4-5,1.8-7.6.4-2.6.6-5.2.6-7.8v-20.2c0-2.4-.3-4.9-.8-7.3s-1.2-4.4-1.9-5.9h0ZM246.8,309.6c0,1.3-.2,2.8-.6,4.3s-1,2.7-1.7,3.6c-.7.9-1.8,1.7-3.4,2.4s-3.3,1.1-5.2,1.1h-14.4c-1.9,0-3.8-.2-5.5-.7-1.8-.5-3.1-1.1-4.1-1.9-1-.8-1.7-2.1-2.3-3.8-.6-1.7-.8-3.4-.8-5.2v-10.6c0-1.8.4-3.4,1.1-5s1.6-2.8,2.7-3.6c1.1-.8,2.4-1.4,3.9-1.8,1.5-.4,3.1-.6,4.9-.6h14.7c1.5,0,2.9.2,4.1.6,1.2.4,2.3,1,3.2,1.7.9.8,1.8,1.9,2.5,3.4.7,1.5,1.1,3.3,1.1,5.3v10.8h0Z"/>
  <path class="st0" d="M517.5,279.4c-.7-1.5-1.8-3-3.1-4.3-1.3-1.3-3-2.5-5.1-3.3-2.1-.9-4.5-1.6-7.1-2.2s-5.4-.9-8.3-.9h-26.6c-2.2,0-4.5.2-7.1.7-2.6.5-5,1.1-7.1,1.9-2.2.8-3.9,1.8-5.3,3.1-1.4,1.2-2.5,2.6-3.5,4.2-.9,1.5-1.7,3.6-2.2,6.1-.6,2.5-.8,5.2-.8,8v20.5c0,3.2.3,6.3.9,9.2s1.4,5.3,2.3,7.1,2,3.5,3.2,4.8c1.2,1.3,2.9,2.4,5,3.3,2.1.8,4.4,1.5,6.9,2,2.5.5,4.9.8,7.4.8h27c2.7,0,5.5-.3,8.3-.8,2.9-.6,5.3-1.2,7.3-2,2-.8,3.7-1.9,5.1-3.4s2.5-3.4,3.3-5.9,1.4-5,1.8-7.6c.4-2.6.6-5.2.6-7.8v-20.2c0-2.4-.3-4.9-.8-7.3s-1.2-4.4-1.9-5.9h0ZM499.8,310c0,1.3-.2,2.8-.6,4.3s-1,2.7-1.7,3.6c-.7.9-1.8,1.7-3.4,2.4-1.5.7-3.3,1.1-5.2,1.1h-14.4c-1.9,0-3.8-.2-5.5-.7-1.8-.5-3.1-1.1-4.1-1.9-1-.8-1.7-2.1-2.3-3.8-.6-1.7-.8-3.4-.8-5.2v-10.6c0-1.8.4-3.4,1.1-5,.7-1.6,1.6-2.8,2.7-3.6,1.1-.8,2.4-1.4,3.9-1.8,1.5-.4,3.1-.6,4.9-.6h14.7c1.5,0,2.9.2,4.1.6,1.2.4,2.3,1,3.2,1.7s1.8,1.9,2.5,3.4c.7,1.5,1.1,3.3,1.1,5.3v10.8h0Z"/>
  <path class="st0" d="M434.4,279.1c-.2-.4-.5-.8-.7-1.2-.6-1.1-1.4-2.1-2.3-3.1-1.3-1.3-3-2.5-5.1-3.3-2.1-.9-4.5-1.6-7.1-2.2s-5.4-.9-8.3-.9h-26.6c-1.7,0-3.5.2-5.4.4v-26.7h-20.6v48.6c0,.5,0,.9,0,1.4v20.5c0,.5,0,1,0,1.5,0,2.6.3,5.2.8,7.6.6,2.9,1.4,5.3,2.3,7.1s2,3.5,3.2,4.8c1.2,1.3,2.9,2.4,5,3.3,2.1.8,4.4,1.5,6.9,2,.8.2,1.6.3,2.4.4,1.7.2,3.3.4,5,.4h27c2.7,0,5.5-.3,8.3-.8,2.9-.6,5.3-1.2,7.3-2,2-.8,3.7-1.9,5.1-3.4s2.5-3.4,3.3-5.9,1.4-5,1.8-7.6c.4-2.6.6-5.2.6-7.8v-20.2c0-2.4-.3-4.9-.8-7.3s-1.2-4.4-1.9-5.9h0ZM417,314.5c-.2,1.8-.8,3.3-1.6,4.3-.8,1-2.1,1.9-3.9,2.6-1.7.7-3.9,1-6.5,1h-8.5c-3.5,0-6.4,0-8.6-.3-2.2-.2-3.9-.8-5.1-1.9-.6-.6-1.1-1.3-1.5-2.1-.4-.8-.7-1.8-.9-2.9l-.4-12.1c-.2-3.6-.1-6,.2-7.3.3-1.3,1-2.4,2-3.3s2.8-1.7,5.2-2.1,6.2-.7,11.2-.6l8.6-.3c2.9-.3,5.1.6,6.8,2.8,1.1,1.5,1.9,2.9,2.4,4.2.2.7.4,1.4.5,2,.2,2,.3,4.6.4,7.9,0,3.5-.1,6.2-.4,8.1h0Z"/>
  <path class="st0" d="M640.1,351.7c-1.2,1.1-2.8,1.7-4.6,1.9-1.8.2-4.2.3-7.1.2v17.7h12.1c2.9,0,5.2-.3,6.7-.8s3.1-1.4,4.8-2.7c1.6-1.3,3.1-3.2,4.4-5.6s3.8-8.8,7.6-19l26.8-73.3h-21.8l-18.2,51.8-18.8-51.8h-22.2l27.8,70.2h6.1l-1.4,8.1c-.1,1.2-.8,2.3-2.1,3.4h0Z"/>
  <path class="st0" d="M331,270.6c-1.9-.3-3.9-.5-6-.5h-26.6c-2.2,0-4.5.2-7.1.7-2.6.5-5,1.1-7.1,1.9-2.2.8-3.9,1.8-5.3,3.1-1.4,1.2-2.5,2.6-3.5,4.2-.9,1.5-1.7,3.6-2.2,6.1-.6,2.5-.8,5.2-.8,8v20.5c0,3.2.3,6.3.9,9.2.6,2.9,1.4,5.3,2.3,7.1s2,3.5,3.2,4.8c1.2,1.3,2.8,2.3,4.8,3.1,0,0,.2,0,.3.1,2.1.8,4.4,1.5,6.9,2,2.5.5,4.9.8,7.4.8h27c2.7,0,5.5-.3,8.3-.8.4,0,.8-.2,1.2-.3,2.3-.5,4.4-1.1,6.1-1.7,2-.8,3.7-1.9,5.1-3.4,1.4-1.5,2.5-3.4,3.3-5.9.8-2.4,1.4-5,1.8-7.6.4-2.6.6-5.2.6-7.8v-72.6h-20.3v29c0,0,0,0,0,0ZM330.9,309c-.1,1.9-.3,3.6-.5,5.2,0,.6-.2,1.1-.3,1.6-.4,1.4-1,2.5-1.6,3.3-.5.6-1.1,1.1-1.9,1.6-.6.3-1.2.5-2,.7-1.9.5-4,.7-6.3.7h-14.6c-1.7,0-3,0-4.2-.2-1.4-.2-2.4-.5-3.1-.9-1.2-.7-2.2-2.1-3.1-4-.8-1.9-1.4-3.5-1.6-4.9-.2-1.4-.4-3.8-.4-7.3-.1-4.3.2-7.5,1-9.5.8-2,2.1-3.5,3.8-4.5,1.7-1,4.2-1.7,7.3-2.2h14.6c2.4,0,4.4.4,5.8,1.2,0,0,.1,0,.2.1,1.3.8,2.5,1.7,3.6,2.8,1.1,1.2,2,2.5,2.6,3.8.2.6.4,1.3.6,2,0,.6.2,1.1.2,1.7v8.5h0Z"/>
  <path class="st2" d="M655.3,234.8c-11,0-21.5,2.2-31.1,6v18.8c10.7-6.8,23.4-10.8,37-10.8,38.2,0,69.2,31,69.2,69.2s-31,69.2-69.2,69.2-36.9-8-49.5-20.9h-25.2c15.1,21.8,40.3,36.1,68.9,36.1,46.3,0,83.7-37.5,83.7-83.8s-37.5-83.8-83.7-83.8h0Z"/>
  <path class="st0" d="M587.9,340.5c2.3-.5,4.4-1.1,6.1-1.7,2-.8,3.7-1.9,5.1-3.4s2.5-3.4,3.3-5.9,1.4-5,1.8-7.6c.4-2.6.6-5.2.6-7.8v-62.2c-6.5,3.3-13.9,9.3-20.4,18.1v.5c-1.9-.3-3.9-.5-6-.5h-26.6c-2.2,0-4.5.2-7.1.7-2.6.5-5,1.1-7.1,1.9-2.2.8-3.9,1.8-5.3,3.1-1.4,1.2-2.5,2.6-3.5,4.2-.9,1.5-1.7,3.6-2.2,6.1-.6,2.5-.8,5.2-.8,8v20.5c0,3.2.3,6.3.9,9.2s1.4,5.3,2.3,7.1,2,3.5,3.2,4.8c1.2,1.3,2.8,2.3,4.8,3.1,0,0,.2,0,.3.1,2.1.8,4.4,1.5,6.9,2,2.5.5,4.9.8,7.4.8h27c2.7,0,5.5-.3,8.3-.8.4,0,.8-.2,1.2-.3h0ZM584.3,309c-.1,1.9-.3,3.6-.5,5.2,0,.6-.2,1.1-.3,1.6-.4,1.4-1,2.5-1.6,3.3-.5.6-1.1,1.1-1.9,1.6-.6.3-1.2.5-2,.7-1.9.5-4,.7-6.3.7h-14.6c-1.7,0-3,0-4.2-.2-1.4-.2-2.4-.5-3.1-.9-1.2-.7-2.2-2.1-3.1-4-.8-1.9-1.4-3.5-1.6-4.9-.2-1.4-.4-3.8-.4-7.3-.1-4.3.2-7.5,1-9.5.8-2,2.1-3.5,3.8-4.5,1.7-1,4.2-1.7,7.3-2.2h14.6c2.4,0,4.4.4,5.8,1.2,0,0,.1,0,.2.1,1.3.8,2.5,1.7,3.6,2.8,1.1,1.2,2,2.5,2.6,3.8.2.6.4,1.3.6,2,0,.6.2,1.1.2,1.7v8.5h0Z"/>
</svg>