<?xml version="1.0" encoding="UTF-8"?>
<svg id="_图层_1" xmlns="http://www.w3.org/2000/svg" version="1.1" viewBox="0 0 1024 600">
  <!-- Generator: Adobe Illustrator 29.0.0, SVG Export Plug-In . SVG Version: 2.1.0 Build 186)  -->
  <defs>
    <style>
      .st0 {
        fill: #fff;
      }

      .st1 {
        fill: #f29600;
      }
    </style>
  </defs>
  <rect width="1024" height="600"/>
  <path class="st0" d="M165.9,297.3c-1.7-3.7-3.7-6.6-6.2-8.7-2.4-2-5.8-4.2-10.3-6.5l9.9-9.9c2.2-1.9,3.9-6,5.1-12.5.7-3.8.7-8.8,0-15s-1.5-11.2-2.6-15.1-3-7.6-5.7-11.3-6-6-9.9-7c-3.9-.9-8.4-1.4-13.5-1.4H15.2v146.6h113.1c8.7,0,14.6-.3,17.7-1s6.7-2.4,11-5.2,7.1-6,8.5-9.7c1.4-3.6,2.4-7.9,2.9-12.9.6-6.6.8-12.4.5-17.4-.2-5-1.2-9.3-2.9-13.1h0ZM49.2,241.6h66.5c4.2,0,7.1,1.7,8.8,5,1.7,3.3,2.7,6.3,2.9,8.9.2,2.6-.8,5.5-3,8.6-2.2,3.1-5.1,4.6-8.8,4.6H49.2v-27.1h0ZM129.1,321.1c-2.1,2.3-5.4,3.4-9.8,3.4H49.2v-28.6h70.2c4.8,0,8.1,1.8,9.9,5.2s2.7,6.6,2.9,9.4c.1,4.8-.8,8.2-3,10.5h0Z"/>
  <path class="st0" d="M292.3,264.9c-1.1-2.3-2.6-4.5-4.6-6.5-1.9-2-4.5-3.7-7.7-5-3.2-1.3-6.8-2.4-10.7-3.3s-8.2-1.3-12.5-1.3h-40c-3.2,0-6.8.3-10.7,1-3.9.7-7.5,1.6-10.7,2.8-3.2,1.2-5.9,2.7-8,4.6-2.1,1.9-3.8,4-5.2,6.3-1.4,2.3-2.5,5.4-3.3,9.2-.8,3.8-1.2,7.8-1.2,12v30.8c0,4.8.5,9.4,1.3,13.8.9,4.4,2,7.9,3.4,10.7s3,5.2,4.8,7.2c1.8,2,4.3,3.6,7.6,4.9,3.2,1.3,6.7,2.3,10.4,3.1,3.7.8,7.4,1.2,11.1,1.2h40.6c4,0,8.2-.4,12.5-1.2s8-1.8,11-3,5.6-2.8,7.7-5.1c2.1-2.2,3.7-5.2,5-8.9,1.2-3.7,2.1-7.5,2.7-11.4.6-3.9.9-7.8.9-11.7v-30.4c0-3.7-.4-7.3-1.2-10.9s-1.8-6.5-2.9-8.9h0ZM265.7,310.9c0,2-.3,4.2-1,6.4s-1.5,4-2.6,5.3c-1.1,1.3-2.8,2.5-5.1,3.6s-4.9,1.7-7.9,1.7h-21.7c-2.9,0-5.7-.3-8.3-1-2.7-.7-4.7-1.6-6.2-2.9-1.5-1.2-2.6-3.1-3.5-5.7-.8-2.5-1.2-5.2-1.2-7.8v-16c0-2.7.5-5.2,1.6-7.6s2.4-4.1,4.1-5.3c1.7-1.2,3.6-2.1,5.9-2.7,2.3-.6,4.7-.9,7.4-.9h22c2.3,0,4.3.3,6.2.9,1.8.6,3.4,1.4,4.8,2.6,1.4,1.1,2.7,2.8,3.8,5.1,1.1,2.2,1.7,4.9,1.7,8v16.3h0Z"/>
  <path class="st0" d="M672.6,265.5c-1.1-2.3-2.6-4.5-4.6-6.5-1.9-2-4.5-3.7-7.7-5-3.2-1.3-6.8-2.4-10.7-3.3s-8.1-1.3-12.5-1.3h-40c-3.2,0-6.8.3-10.7,1-3.9.7-7.5,1.6-10.7,2.8-3.2,1.2-5.9,2.7-8,4.6-2.1,1.9-3.8,4-5.2,6.3-1.4,2.3-2.5,5.4-3.4,9.2-.8,3.8-1.2,7.8-1.2,12v30.8c0,4.8.5,9.4,1.4,13.8s2,7.9,3.4,10.7,3,5.2,4.8,7.2c1.8,2,4.4,3.6,7.6,4.9,3.2,1.3,6.6,2.3,10.4,3.1,3.7.8,7.4,1.2,11.1,1.2h40.6c4,0,8.2-.4,12.5-1.2,4.3-.8,8-1.8,11-3,3-1.1,5.6-2.8,7.7-5.1s3.7-5.2,5-8.9,2.1-7.5,2.7-11.4c.6-3.9.9-7.8.9-11.7v-30.4c0-3.7-.4-7.3-1.2-10.9s-1.8-6.5-2.9-8.9h0ZM646,311.5c0,2-.3,4.2-1,6.4s-1.5,4-2.6,5.3c-1.1,1.3-2.8,2.5-5.1,3.6-2.3,1.1-4.9,1.7-7.9,1.7h-21.7c-2.9,0-5.6-.3-8.3-1-2.7-.7-4.7-1.6-6.2-2.9-1.5-1.2-2.6-3.1-3.5-5.7-.8-2.5-1.2-5.2-1.2-7.8v-16c0-2.7.5-5.2,1.6-7.6,1.1-2.4,2.4-4.1,4.1-5.3,1.6-1.2,3.6-2.1,5.9-2.7,2.3-.6,4.7-.9,7.4-.9h22c2.3,0,4.4.3,6.1.9,1.8.6,3.4,1.4,4.8,2.6s2.7,2.8,3.8,5.1c1.1,2.2,1.7,4.9,1.7,8v16.3h0Z"/>
  <path class="st0" d="M547.7,265.1c-.3-.6-.7-1.2-1.1-1.9-1-1.6-2.1-3.2-3.5-4.6-1.9-2-4.5-3.7-7.7-5-3.2-1.3-6.8-2.4-10.7-3.3s-8.1-1.3-12.5-1.3h-40c-2.5,0-5.2.3-8.1.7v-40.1h-31v73.1c0,.7-.1,1.4-.1,2.1v30.8c0,.8,0,1.5.1,2.3.1,4,.5,7.8,1.2,11.5.9,4.4,2,7.9,3.4,10.7s3,5.2,4.8,7.2c1.8,2,4.3,3.6,7.6,4.9,3.2,1.3,6.7,2.3,10.4,3.1,1.2.3,2.4.4,3.6.6,2.5.4,5,.6,7.5.6h40.6c4,0,8.2-.4,12.5-1.2,4.3-.8,8-1.8,11-3,3-1.1,5.6-2.8,7.7-5.1s3.7-5.2,5-8.9,2.1-7.5,2.7-11.4c.6-3.9.9-7.8.9-11.7v-30.4c0-3.7-.4-7.3-1.2-10.9s-1.8-6.5-2.9-8.9h0ZM521.6,318.2c-.4,2.8-1.2,4.9-2.4,6.5-1.3,1.5-3.2,2.8-5.8,3.9-2.6,1-5.9,1.6-9.8,1.6h-12.7c-5.3,0-9.6-.1-13-.4-3.3-.2-5.9-1.2-7.7-2.9-.9-.9-1.7-1.9-2.3-3.2-.6-1.2-1-2.7-1.4-4.3l-.5-18.2c-.3-5.4-.2-9,.3-11,.5-1.9,1.5-3.6,3.1-5s4.2-2.5,7.8-3.2,9.3-1,16.9-.9l13-.4c4.3-.5,7.7.9,10.2,4.2,1.7,2.2,2.8,4.3,3.5,6.4.4,1,.6,2,.7,3,.3,3,.5,7,.6,11.9,0,5.3-.2,9.4-.5,12.1h0Z"/>
  <path class="st0" d="M856.8,374.2c-1.9,1.6-4.2,2.5-7,2.9-2.8.4-6.4.5-10.7.3v26.5h18.2c4.4,0,7.8-.4,10.1-1.2s4.7-2.2,7.2-4.1c2.4-1.9,4.6-4.8,6.6-8.4s5.8-13.2,11.4-28.6l40.2-110.2h-32.7l-27.4,77.8-28.3-77.8h-33.3l41.8,105.4h9.2l-2.2,12.2c-.2,1.8-1.3,3.5-3.1,5.1h0Z"/>
  <path class="st0" d="M392.3,252.2c-2.9-.4-5.9-.7-9-.7h-40c-3.2,0-6.8.3-10.7,1-3.9.7-7.5,1.6-10.7,2.8-3.2,1.2-5.9,2.7-8,4.6-2.1,1.9-3.8,4-5.2,6.3-1.4,2.3-2.5,5.4-3.3,9.2-.8,3.8-1.2,7.8-1.2,12v30.8c0,4.8.5,9.4,1.3,13.8.9,4.4,2,7.9,3.4,10.7s3,5.2,4.8,7.2c1.8,1.9,4.2,3.5,7.2,4.7.1,0,.3.1.4.2,3.2,1.3,6.7,2.3,10.4,3.1,3.7.8,7.4,1.2,11.1,1.2h40.6c4,0,8.2-.4,12.5-1.2.6-.1,1.2-.2,1.8-.4,3.5-.8,6.6-1.6,9.2-2.6,3-1.1,5.6-2.8,7.7-5.1,2.1-2.2,3.7-5.2,5-8.9,1.2-3.7,2.1-7.5,2.7-11.4.6-3.9.9-7.8.9-11.7v-109.1h-30.5v43.6c0,0,0,0,0,0ZM392.2,310.1c-.2,2.9-.4,5.5-.7,7.8-.1.9-.2,1.7-.4,2.4-.6,2.1-1.5,3.8-2.5,5-.7.8-1.7,1.6-2.9,2.4-.9.4-1.8.7-3,1-2.8.7-6,1-9.4,1h-21.9c-2.5,0-4.6-.1-6.3-.4-2.1-.3-3.7-.7-4.7-1.3-1.8-1.1-3.4-3.1-4.6-5.9-1.3-2.8-2.1-5.3-2.4-7.4-.4-2.1-.6-5.7-.7-10.9-.2-6.5.3-11.2,1.5-14.2,1.2-3,3.1-5.3,5.7-6.8,2.6-1.5,6.3-2.6,11-3.3h21.9c3.7,0,6.6.6,8.7,1.8,0,0,.2.1.3.2,2,1.2,3.8,2.6,5.4,4.3,1.7,1.8,3,3.7,3.9,5.8.3.9.6,1.9.8,3,0,.9.2,1.7.2,2.6v12.8h0Z"/>
  <path class="st1" d="M879.8,198.5c-16.6,0-32.3,3.3-46.8,9.1v28.2c16.1-10.2,35.2-16.2,55.7-16.2,57.5,0,104,46.6,104,104s-46.5,104-104,104-55.5-12.1-74.4-31.4h-37.9c22.7,32.7,60.5,54.2,103.5,54.2,69.5,0,125.8-56.4,125.8-125.9s-56.3-125.9-125.8-125.9h0Z"/>
  <path class="st0" d="M778.4,357.4c3.5-.8,6.6-1.6,9.2-2.6,3-1.1,5.6-2.8,7.7-5.1s3.7-5.2,5-8.9,2.1-7.5,2.7-11.4c.6-3.9.9-7.8.9-11.7v-93.6c-9.7,4.9-20.9,13.9-30.6,27.2v.8c-2.9-.4-5.9-.7-9-.7h-40c-3.2,0-6.8.3-10.7,1-3.9.7-7.5,1.6-10.7,2.8-3.2,1.2-5.9,2.7-8,4.6-2.1,1.9-3.8,4-5.2,6.3-1.4,2.3-2.5,5.4-3.4,9.2-.8,3.8-1.2,7.8-1.2,12v30.8c0,4.8.5,9.4,1.4,13.8s2,7.9,3.4,10.7,3,5.2,4.8,7.2c1.8,1.9,4.1,3.5,7.1,4.7.1,0,.3.1.4.2,3.2,1.3,6.6,2.3,10.4,3.1,3.7.8,7.4,1.2,11.1,1.2h40.6c4,0,8.2-.4,12.5-1.2.6-.1,1.2-.2,1.8-.4h0ZM773,310.1c-.2,2.9-.4,5.5-.7,7.8-.1.9-.2,1.7-.4,2.4-.6,2.1-1.4,3.8-2.5,5-.7.8-1.7,1.6-2.9,2.4-.9.4-1.9.7-3,1-2.8.7-6,1-9.4,1h-21.9c-2.5,0-4.6-.1-6.3-.4-2.1-.3-3.6-.7-4.6-1.3-1.8-1.1-3.4-3.1-4.6-5.9-1.3-2.8-2.1-5.3-2.4-7.4-.4-2.1-.6-5.7-.6-10.9-.2-6.5.3-11.2,1.5-14.2,1.2-3,3.1-5.3,5.7-6.8,2.6-1.5,6.3-2.6,11-3.3h21.9c3.7,0,6.6.6,8.7,1.8.1,0,.2.1.3.2,2,1.2,3.8,2.6,5.4,4.3,1.6,1.8,2.9,3.7,3.9,5.8.3.9.6,1.9.8,3,.1.9.2,1.7.2,2.6v12.8h0Z"/>
</svg>